<mxfile host="app.diagrams.net" modified="2023-08-21T01:17:40.468Z" agent="Mozilla/5.0 (Windows NT 10.0; Win64; x64) AppleWebKit/537.36 (KHTML, like Gecko) Chrome/116.0.0.0 Safari/537.36" version="21.5.0" etag="_FSCwirTJGrlKbwyRl0b" type="github">
  <diagram name="第 1 页" id="2SWWUSA1ziUpz79r-O6q">
    <mxGraphModel>
      <root>
        <mxCell id="0" />
        <mxCell id="1" parent="0" />
      </root>
    </mxGraphModel>
  </diagram>
</mxfile>
